<svg version="1.1" xmlns="http://www.w3.org/2000/svg" xmlns:xlink="http://www.w3.org/1999/xlink" width="35.94942" height="35.86926" viewBox="0,0,35.94942,35.86926"><g transform="translate(-222.02529,-162.06537)"><g data-paper-data="{&quot;isPaintingLayer&quot;:true}" fill-rule="nonzero" stroke-linejoin="miter" stroke-miterlimit="10" stroke-dasharray="" stroke-dashoffset="0" style="mix-blend-mode: normal"><path d="M257.85424,162.06537v35.77812h-35.77812v-35.77812z" data-paper-data="{&quot;index&quot;:null}" fill="#ff0000" stroke="none" stroke-width="0" stroke-linecap="butt"/><path d="M257.90897,189.38723v8.5474h-35.88368v-8.5474z" data-paper-data="{&quot;index&quot;:null}" fill="#a8ab47" stroke="none" stroke-width="0" stroke-linecap="butt"/><path d="M230.15709,186.58223c-2.24869,0 -4.07162,-1.75782 -4.07162,-3.92621c0,-2.16839 1.82293,-3.92621 4.07162,-3.92621c2.2487,0 4.07162,1.75782 4.07162,3.92621c0,2.16839 -1.82293,3.92621 -4.07162,3.92621z" data-paper-data="{&quot;index&quot;:null}" fill="#000000" stroke="none" stroke-width="0" stroke-linecap="butt"/><path d="M249.27917,186.14599c-2.28885,0 -4.14433,-1.88804 -4.14433,-4.21704c0,-2.32901 1.85548,-4.21704 4.14433,-4.21704c2.28885,0 4.14433,1.88804 4.14433,4.21704c0,2.329 -1.85548,4.21704 -4.14433,4.21704z" data-paper-data="{&quot;index&quot;:null}" fill="#000000" stroke="#000000" stroke-width="1.25" stroke-linecap="butt"/><path d="M243.09903,186.2914l8.28866,2.18123" data-paper-data="{&quot;index&quot;:null}" fill="none" stroke="#000000" stroke-width="1.25" stroke-linecap="round"/><path d="M236.11911,186.2914l-9.45198,2.47206" data-paper-data="{&quot;index&quot;:null}" fill="none" stroke="#000000" stroke-width="1.25" stroke-linecap="round"/><path d="M257.34971,174.36736h-34.60879" data-paper-data="{&quot;index&quot;:null}" fill="none" stroke="#000000" stroke-width="1.25" stroke-linecap="round"/><path d="M257.2043,162.87957v13.23277h-34.46338v-13.23277z" data-paper-data="{&quot;index&quot;:null}" fill="#000000" stroke="#000000" stroke-width="1.25" stroke-linecap="butt"/><path d="M235.45929,170.23677l0.47217,1.67989l-6.85953,1.92801l-0.47217,-1.67989z" data-paper-data="{&quot;origRot&quot;:0,&quot;index&quot;:null}" fill="#ffe800" stroke="#ffa700" stroke-width="0.5" stroke-linecap="butt"/><path d="M233.46251,166.59166l0.83032,1.53477l-6.26699,3.39047l-0.83032,-1.53477z" data-paper-data="{&quot;origRot&quot;:0,&quot;index&quot;:null}" fill="#ffe800" stroke="#ffa700" stroke-width="0.5" stroke-linecap="butt"/><path d="M236.25313,174.52417v1.74498h-7.12534v-1.74498z" data-paper-data="{&quot;index&quot;:null}" fill="#ffe800" stroke="#ffa700" stroke-width="0.5" stroke-linecap="butt"/><path d="M230.04027,162.76156l1.32479,1.13573l-4.63756,5.40957l-1.32479,-1.13573z" data-paper-data="{&quot;origRot&quot;:0,&quot;index&quot;:null}" fill="#ffe800" stroke="#ffa700" stroke-width="0.5" stroke-linecap="butt"/><path d="M222.86472,162.82973l1.74435,0.03075l-0.19162,4.66688l-1.74435,-0.03075z" data-paper-data="{&quot;origRot&quot;:0,&quot;index&quot;:null}" fill="#ffe800" stroke="#ffa700" stroke-width="0.5" stroke-linecap="butt"/></g></g></svg>